<?xml version="1.0" encoding="iso-8859-1"?>
<!-- Generator: Adobe Illustrator 19.0.0, SVG Export Plug-In . SVG Version: 6.00 Build 0)  -->
<svg version="1.1" id="Capa_1" xmlns="http://www.w3.org/2000/svg" xmlns:xlink="http://www.w3.org/1999/xlink" x="0px" y="0px"
	 viewBox="0 0 512 512" style="enable-background:new 0 0 512 512;" xml:space="preserve">
<g>
	<path style="fill:#004777;" d="M392.979,96.248L364.487,124.6c-0.587,0.563-2.445,1.331-3.256,1.345H298v15h63.231
		c4.767,0,10.455-2.348,13.834-5.71l29.748-29.602C399.951,103.811,395.818,100.495,392.979,96.248z"/>
	<path style="fill:#004777;" d="M372.314,445.272l-19.394-19.298c-3.379-3.362-9.067-5.71-13.834-5.71H298v15h41.083
		c0.814,0.014,2.672,0.781,3.257,1.343l18.606,18.515C363.598,450.766,367.574,447.298,372.314,445.272z"/>
	<path style="fill:#004777;" d="M364.394,372.672c0-2.615,0.418-5.135,1.185-7.5H298v15h67.578
		C364.811,377.807,364.394,375.287,364.394,372.672z"/>
	<path style="fill:#004777;" d="M377.215,307.432c0-2.615,0.418-5.135,1.185-7.5H298v15h80.399
		C377.633,312.566,377.215,310.047,377.215,307.432z"/>
	<path style="fill:#004777;" d="M320,237.843c0-2.616,0.418-5.135,1.185-7.5H298v15h23.185C320.418,242.977,320,240.459,320,237.843
		z"/>
	<path style="fill:#004777;" d="M454.654,237.252l-59.774-59.48c-3.379-3.362-9.067-5.71-13.834-5.71H298v15h83.043
		c0.813,0.014,2.672,0.781,3.257,1.343l59.735,59.441C446.38,243.309,450.103,239.594,454.654,237.252z"/>
	<path style="fill:#004777;" d="M316.606,68.798c0-2.616,0.419-5.135,1.185-7.5H298v15h19.791
		C317.024,73.933,316.606,71.414,316.606,68.798z"/>
</g>
<path style="fill:#FFC502;" d="M341.172,94.275c-14.097,0-25.565-11.429-25.565-25.478c0-14.048,11.469-25.477,25.565-25.477
	c14.098,0,25.566,11.429,25.566,25.477C366.738,82.847,355.27,94.275,341.172,94.275z"/>
<path style="fill:#EF5050;" d="M188.969,42.726c-3.028-0.503-6.133-0.777-9.303-0.777c-31.046,0-56.214,25.044-56.214,55.937
	c0,2.72,0.205,5.391,0.582,8.007c-5.397-1.714-11.146-2.649-17.115-2.649c-31.046,0-56.213,25.044-56.213,55.937
	c0,9.179,2.236,17.833,6.174,25.475c-26.29,12.844-44.393,39.736-44.393,70.845c0,31.229,18.241,58.217,44.697,70.999
	c-4.131,7.786-6.479,16.652-6.479,26.068c0,30.893,25.167,55.936,56.213,55.936c5.945,0,11.67-0.926,17.047-2.627
	c-0.327,2.449-0.514,4.942-0.514,7.479c0,30.894,25.168,55.938,56.214,55.938c3.197,0,6.329-0.28,9.38-0.791
	C196.201,489.157,215.891,504,239.077,504C268.306,504,292,480.423,292,451.338V59.662C292,30.577,268.306,7,239.077,7
	C215.806,7,196.058,21.953,188.969,42.726z"/>
<g style="opacity:0.1;">
	<path style="fill:#00003F;" d="M27.487,273.5c0-28.395,15.936-53.82,41.587-66.352c1.209-0.59,2.128-1.642,2.552-2.918
		c0.423-1.276,0.314-2.669-0.302-3.864c-3.728-7.235-5.618-15.036-5.618-23.185c0-28.087,22.974-50.937,51.213-50.937
		c5.306,0,10.556,0.813,15.602,2.415c0.496,0.157,1.007,0.234,1.514,0.234c1.168,0,2.317-0.409,3.233-1.186
		c1.313-1.112,1.961-2.823,1.716-4.526c-0.352-2.445-0.531-4.899-0.531-7.294c0-28.087,22.975-50.938,51.214-50.938
		c2.793,0,5.648,0.239,8.483,0.71c0.276,0.046,0.551,0.068,0.822,0.068c2.107,0,4.029-1.336,4.73-3.386
		C210.302,42.997,228.537,30,249.077,30c18.495,0,34.566,10.48,42.552,25.778C289.388,28.747,266.646,7.5,238.902,7.5
		c-23.271,0-43.02,14.953-50.108,35.726c-3.028-0.503-6.133-0.777-9.303-0.777c-31.046,0-56.214,25.044-56.214,55.937
		c0,2.72,0.205,5.391,0.582,8.007c-5.397-1.714-11.146-2.649-17.115-2.649c-31.046,0-56.213,25.044-56.213,55.937
		c0,9.179,2.236,17.833,6.174,25.475C30.415,197.999,12.313,224.892,12.313,256c0,24.905,11.609,47.103,29.727,61.56
		C32.732,305.105,27.487,289.805,27.487,273.5z"/>
</g>
<g>
	<path style="fill:#FB8276;" d="M119.541,282.2c4.143,0,7.5-3.357,7.5-7.5s-3.357-7.5-7.5-7.5H98.029
		c-13.725,0-24.891-11.095-24.891-24.732c0-4.143-3.357-7.5-7.5-7.5s-7.5,3.357-7.5,7.5c0,21.908,17.895,39.732,39.891,39.732
		H119.541z"/>
	<path style="fill:#FB8276;" d="M87.566,360.934c0,4.143,3.357,7.5,7.5,7.5s7.5-3.357,7.5-7.5c0-12.807,10.487-23.226,23.379-23.226
		h64.072c4.143,0,7.5-3.357,7.5-7.5s-3.357-7.5-7.5-7.5h-64.072C104.783,322.708,87.566,339.855,87.566,360.934z"/>
	<path style="fill:#FB8276;" d="M220.018,337.708h31.109c4.143,0,7.5-3.357,7.5-7.5s-3.358-7.5-7.5-7.5h-31.109
		c-4.143,0-7.5,3.357-7.5,7.5C212.518,334.351,215.875,337.708,220.018,337.708z"/>
	<path style="fill:#FB8276;" d="M151.77,223.37c-4.143,0-7.5,3.357-7.5,7.5s3.357,7.5,7.5,7.5c29.843,0,54.122-24.176,54.122-53.893
		c0-4.142-3.357-7.5-7.5-7.5s-7.5,3.358-7.5,7.5C190.892,205.923,173.342,223.37,151.77,223.37z"/>
	<path style="fill:#FB8276;" d="M184.567,63.597c-17.916-1.15-33.45,12.433-34.612,30.289c-0.269,4.134,2.864,7.702,6.997,7.972
		c0.166,0.011,0.331,0.016,0.495,0.016c3.92,0,7.218-3.046,7.477-7.013c0.624-9.608,9.004-16.905,18.679-16.295
		c4.138,0.276,7.7-2.868,7.967-7.002C191.836,67.43,188.701,63.863,184.567,63.597z"/>
	<path style="fill:#FB8276;" d="M159.344,356.104c-4.143,0-7.5,3.357-7.5,7.5s3.357,7.5,7.5,7.5
		c12.385,0,22.461,10.009,22.461,22.311c0,12.304-10.076,22.314-22.461,22.314c-4.143,0-7.5,3.357-7.5,7.5s3.357,7.5,7.5,7.5
		c20.656,0,37.461-16.738,37.461-37.314C196.805,372.843,180,356.104,159.344,356.104z"/>
	<path style="fill:#FB8276;" d="M236.1,230.329c-4.143,0-7.5,3.357-7.5,7.5s3.357,7.5,7.5,7.5c18.221,0,33.044-14.768,33.044-32.919
		c0-18.15-14.823-32.917-33.044-32.917c-4.143,0-7.5,3.357-7.5,7.5s3.357,7.5,7.5,7.5c9.949,0,18.044,8.037,18.044,17.917
		C254.144,222.291,246.049,230.329,236.1,230.329z"/>
	<path style="fill:#FB8276;" d="M103.981,223.425c25.364,0,46-20.55,46-45.81c0-25.259-20.636-45.808-46-45.808
		c-4.143,0-7.5,3.357-7.5,7.5s3.357,7.5,7.5,7.5c17.094,0,31,13.82,31,30.808s-13.906,30.81-31,30.81c-4.143,0-7.5,3.357-7.5,7.5
		C96.481,220.067,99.839,223.425,103.981,223.425z"/>
	<path style="fill:#FB8276;" d="M238.902,0c-23.818,0-45.184,13.882-54.934,35.109c-1.499-0.107-2.994-0.161-4.477-0.161
		c-34.628,0-62.893,27.646-63.696,61.936c-2.99-0.426-6.014-0.641-9.051-0.641c-35.132,0-63.713,28.458-63.713,63.437
		c0,7.678,1.347,15.107,4.011,22.174C20.818,197.414,4.813,225.21,4.813,256c0,30.423,16.453,58.831,42.473,74.28
		c-2.797,7.243-4.254,14.999-4.254,22.787c0,34.979,28.581,63.436,63.713,63.436c3.043,0,6.071-0.215,9.064-0.642
		c1.066,34.056,29.224,61.432,63.683,61.432c1.518,0,3.049-0.057,4.585-0.169C193.879,498.211,215.202,512,238.902,512
		c33.317,0,60.423-26.988,60.423-60.162V60.162C299.325,26.988,272.22,0,238.902,0z M284.325,60.995H269.9
		c-4.143,0-7.5,3.357-7.5,7.5s3.357,7.5,7.5,7.5h14.425v49.949h-60.66c-13.725,0-24.891-11.094-24.891-24.73
		c0-4.143-3.357-7.5-7.5-7.5s-7.5,3.357-7.5,7.5c0,21.907,17.895,39.73,39.891,39.73h60.66V267.2H162.667
		c-4.143,0-7.5,3.357-7.5,7.5s3.357,7.5,7.5,7.5h121.658v102.976h-23.176c-21.162,0-38.378,17.147-38.378,38.225
		c0,4.143,3.357,7.5,7.5,7.5s7.5-3.357,7.5-7.5c0-12.806,10.487-23.225,23.378-23.225h23.176v51.662c0,1.178-0.06,2.342-0.149,3.497
		H269.9c-4.143,0-7.5,3.357-7.5,7.5s3.357,7.5,7.5,7.5h10.424C273.203,486.037,257.321,497,238.902,497
		c-16.544,0-31.539-8.926-39.498-22.873c9.059-2.959,17.396-7.933,24.42-14.709c2.981-2.876,3.066-7.624,0.19-10.604
		c-2.876-2.983-7.624-3.067-10.604-0.191c-7.07,6.821-15.885,11.259-25.41,12.923v0.029c-0.123,0.014-5.834,0.719-8.509,0.719
		c-26.861,0-48.714-21.729-48.714-48.438c0-0.683,0.041-1.392,0.074-2.094c6.054-2.464,11.741-5.836,16.813-10.07
		c3.18-2.654,3.605-7.384,0.95-10.564s-7.386-3.606-10.564-0.95c-6.096,5.089-13.345,8.58-21.051,10.231v0.004
		c-3.361,0.719-6.794,1.09-10.256,1.09c-26.86,0-48.713-21.729-48.713-48.436c0-7.957,1.886-15.545,5.604-22.554
		c0.089-0.168,0.276-0.514,0.276-0.514c4.411-8.099,11.13-14.932,19.572-19.504c3.643-1.973,4.996-6.524,3.023-10.166
		c-1.972-3.644-6.525-4.999-10.166-3.023c-8.959,4.853-16.427,11.659-22.013,19.714C32.882,304.119,19.813,281.308,19.813,256
		c0-22.044,9.949-42.23,26.717-55.595c1.469-1.131,2.96-2.219,4.471-3.253c11.552-7.906,25.536-12.538,40.588-12.538
		c4.143,0,7.5-3.357,7.5-7.5s-3.357-7.5-7.5-7.5c-10.896,0-21.326,2.015-30.942,5.682c-1.724-5-2.614-10.225-2.614-15.615
		c0-26.709,21.852-48.437,48.713-48.437c5.049,0,10.044,0.773,14.846,2.298c2.461,0.781,5.15,0.242,7.119-1.428
		c1.97-1.67,2.941-4.234,2.573-6.79c-0.335-2.328-0.505-4.662-0.505-6.938c0-26.708,21.853-48.437,48.714-48.437
		c2.638,0,5.334,0.226,8.017,0.667c23.058,3.814,40.696,23.777,40.696,47.77c0,4.143,3.357,7.5,7.5,7.5s7.5-3.357,7.5-7.5
		c0-28.102-18.455-51.979-43.929-60.285C207.196,24.019,222.246,15,238.902,15c25.046,0,45.423,20.26,45.423,45.162L284.325,60.995
		L284.325,60.995z"/>
</g>
<g>
	<path style="fill:#FFC502;" d="M456.563,182.422c-14.098,0-25.566-11.429-25.566-25.478c0-14.048,11.469-25.477,25.566-25.477
		s25.566,11.429,25.566,25.477C482.129,170.993,470.66,182.422,456.563,182.422z"/>
	<path style="fill:#FFC502;" d="M481.622,374.373c-14.098,0-25.566-11.429-25.566-25.477s11.469-25.478,25.566-25.478
		c14.097,0,25.565,11.429,25.565,25.478S495.719,374.373,481.622,374.373z"/>
	<path style="fill:#FFC502;" d="M344.566,263.319c-14.098,0-25.566-11.429-25.566-25.477c0-14.049,11.469-25.478,25.566-25.478
		c14.098,0,25.566,11.429,25.566,25.478C370.133,251.891,358.664,263.319,344.566,263.319z"/>
</g>
<g>
	<path style="fill:#33C7CA;" d="M388.96,398.149c-14.098,0-25.566-11.429-25.566-25.478s11.469-25.478,25.566-25.478
		c14.098,0,25.566,11.429,25.566,25.478C414.526,386.721,403.058,398.149,388.96,398.149z"/>
	<path style="fill:#33C7CA;" d="M413.436,108.193c-14.097,0-25.565-11.429-25.565-25.478c0-14.048,11.469-25.476,25.565-25.476
		c14.098,0,25.566,11.429,25.566,25.476C439.003,96.765,427.534,108.193,413.436,108.193z"/>
	<path style="fill:#33C7CA;" d="M465.887,284.486c-14.098,0-25.566-11.429-25.566-25.478c0-14.048,11.469-25.477,25.566-25.477
		c14.098,0,25.566,11.429,25.566,25.477C491.453,273.058,479.984,284.486,465.887,284.486z"/>
	<path style="fill:#33C7CA;" d="M448.986,452.661c-14.098,0-25.566-11.429-25.566-25.478s11.469-25.478,25.566-25.478
		c14.098,0,25.566,11.429,25.566,25.478S463.084,452.661,448.986,452.661z"/>
</g>
<g>
	<path style="fill:#FFC502;" d="M401.781,332.909c-14.098,0-25.566-11.429-25.566-25.478s11.469-25.478,25.566-25.478
		c14.098,0,25.566,11.429,25.566,25.478C427.348,321.48,415.879,332.909,401.781,332.909z"/>
	<path style="fill:#FFC502;" d="M381.967,493.255c-14.098,0-25.566-11.429-25.566-25.478s11.469-25.478,25.566-25.478
		c14.098,0,25.566,11.429,25.566,25.478C407.533,481.826,396.065,493.255,381.967,493.255z"/>
</g>
<g>
</g>
<g>
</g>
<g>
</g>
<g>
</g>
<g>
</g>
<g>
</g>
<g>
</g>
<g>
</g>
<g>
</g>
<g>
</g>
<g>
</g>
<g>
</g>
<g>
</g>
<g>
</g>
<g>
</g>
</svg>
