<?xml version="1.0" encoding="UTF-8" standalone="no"?>
<!-- Created with Inkscape (http://www.inkscape.org/) -->

<svg
   version="1.1"
   id="svg2"
   width="1066.6667"
   height="316.01334"
   viewBox="0 0 1066.6667 316.01334"
   sodipodi:docname="FF-01.eps"
   xmlns:inkscape="http://www.inkscape.org/namespaces/inkscape"
   xmlns:sodipodi="http://sodipodi.sourceforge.net/DTD/sodipodi-0.dtd"
   xmlns="http://www.w3.org/2000/svg"
   xmlns:svg="http://www.w3.org/2000/svg">
  <defs
     id="defs6" />
  <sodipodi:namedview
     id="namedview4"
     pagecolor="#ffffff"
     bordercolor="#000000"
     borderopacity="0.25"
     inkscape:showpageshadow="2"
     inkscape:pageopacity="0.0"
     inkscape:pagecheckerboard="0"
     inkscape:deskcolor="#d1d1d1" />
  <g
     id="g8"
     inkscape:groupmode="layer"
     inkscape:label="ink_ext_XXXXXX"
     transform="matrix(1.3333333,0,0,-1.3333333,0,316.01333)">
    <g
       id="g10"
       transform="scale(0.1)">
      <path
         d="M 2524.19,889.469 H 2371.08 V 2010.25 h 153.11 V 889.469"
         style="fill:#314642;fill-opacity:1;fill-rule:nonzero;stroke:none"
         id="path12" />
      <path
         d="m 3300.42,1405.45 -1.52,-515.981 h -153.13 v 506.801 c 0,145.46 -85.73,209.76 -151.57,209.76 -91.87,0 -154.65,-49 -194.46,-97.99 V 889.469 h -153.11 v 767.081 h 153.11 v -81.14 c 47.47,44.4 111.78,81.14 195.98,81.14 217.43,0 304.7,-128.61 304.7,-251.1"
         style="fill:#314642;fill-opacity:1;fill-rule:nonzero;stroke:none"
         id="path14" />
      <path
         d="m 3836.26,976.738 c -36.73,-47.457 -91.87,-108.707 -217.41,-108.707 -140.87,0 -146.99,73.489 -146.99,145.459 v 584.89 H 3346.3 v 58.17 h 125.56 v 192.93 h 153.11 v -192.93 h 163.83 v -58.17 h -163.83 v -554.27 c 0,-44.399 -10.72,-107.18 42.87,-120.962 32.16,-9.187 98,4.602 136.27,73.493 l 32.15,-19.903"
         style="fill:#314642;fill-opacity:1;fill-rule:nonzero;stroke:none"
         id="path16" />
      <path
         d="m 4009.24,1356.46 h 333.79 c -3.06,166.89 -30.63,246.5 -131.68,246.5 -96.46,0 -182.2,-53.58 -202.11,-246.5 z m -4.58,-58.18 v -35.22 c 0,-281.72 255.68,-496.08 494.54,-217.42 l 26.03,-24.5 c -9.19,-19.9 -94.93,-153.109 -315.41,-153.109 -235.79,0 -373.6,171.479 -373.6,395.029 0,223.54 137.81,393.49 373.6,393.49 281.73,0 316.95,-215.88 316.95,-300.09 v -58.18 h -522.11"
         style="fill:#314642;fill-opacity:1;fill-rule:nonzero;stroke:none"
         id="path18" />
      <path
         d="m 5272.37,1405.45 -1.52,-515.981 h -153.13 v 506.801 c 0,145.46 -85.73,209.76 -151.57,209.76 -91.87,0 -154.65,-49 -194.46,-97.99 V 889.469 h -153.11 v 767.081 h 153.11 v -81.14 c 47.48,44.4 111.78,81.14 195.98,81.14 217.43,0 304.7,-128.61 304.7,-251.1"
         style="fill:#314642;fill-opacity:1;fill-rule:nonzero;stroke:none"
         id="path20" />
      <path
         d="m 5965.9,1070.13 c 0,-125.548 -143.92,-202.099 -329.18,-202.099 -111.78,0 -272.55,53.59 -272.55,217.419 h 61.26 c 0,-128.61 125.54,-165.36 214.35,-168.419 105.65,0 186.8,42.867 186.8,113.299 0,99.52 -82.69,116.37 -220.49,177.61 -87.27,38.28 -241.92,104.11 -241.92,248.04 0,111.77 104.11,206.7 301.64,206.7 55.11,0 246.5,-15.31 246.5,-185.26 h -53.58 c 0,116.36 -136.27,142.39 -191.4,142.39 -93.39,0 -165.36,-36.75 -165.36,-117.9 0,-82.68 94.93,-111.77 205.17,-163.83 159.23,-75.02 258.76,-127.08 258.76,-267.95"
         style="fill:#314642;fill-opacity:1;fill-rule:nonzero;stroke:none"
         id="path22" />
      <path
         d="M 6229.21,889.469 H 6076.1 v 767.081 h 153.11 V 889.469"
         style="fill:#314642;fill-opacity:1;fill-rule:nonzero;stroke:none"
         id="path24" />
      <path
         d="M 7055.98,1656.55 6708.43,868.031 6340.95,1656.55 h 169.96 l 248.04,-540.48 234.27,540.48 h 62.76"
         style="fill:#314642;fill-opacity:1;fill-rule:nonzero;stroke:none"
         id="path26" />
      <path
         d="m 7213.66,1356.46 h 333.79 c -3.07,166.89 -30.63,246.5 -131.69,246.5 -96.45,0 -182.2,-53.58 -202.1,-246.5 z m -4.58,-58.18 v -35.22 c 0,-281.72 255.68,-496.08 494.54,-217.42 l 26.02,-24.5 c -9.18,-19.9 -94.93,-153.109 -315.4,-153.109 -235.79,0 -373.6,171.479 -373.6,395.029 0,223.54 137.81,393.49 373.6,393.49 281.73,0 316.94,-215.88 316.94,-300.09 v -58.18 h -522.1"
         style="fill:#314642;fill-opacity:1;fill-rule:nonzero;stroke:none"
         id="path28" />
      <path
         d="m 6227.15,1711.13 v 167.66 H 6076.1 Z"
         style="fill:#c17666;fill-opacity:1;fill-rule:nonzero;stroke:none"
         id="path30" />
      <path
         d="M 1366.42,524.781 1345.3,379.43 c 344.27,56.429 616.68,328.84 673.1,673.12 l -145.34,-21.12 C 1814.75,780.738 1617.1,583.09 1366.42,524.781"
         style="fill:#314642;fill-opacity:1;fill-rule:nonzero;stroke:none"
         id="path32" />
      <path
         d="m 1059.22,1845.27 21.12,145.34 C 736.07,1934.19 463.664,1661.77 407.238,1317.5 l 145.34,21.12 c 58.313,250.69 255.961,448.34 506.642,506.65"
         style="fill:#314642;fill-opacity:1;fill-rule:nonzero;stroke:none"
         id="path34" />
      <path
         d="m 552.578,1031.43 -145.34,21.12 C 463.664,708.27 736.07,435.859 1080.34,379.43 l -21.12,145.351 C 808.539,583.09 610.891,780.738 552.578,1031.43"
         style="fill:#314642;fill-opacity:1;fill-rule:nonzero;stroke:none"
         id="path36" />
      <path
         d="m 1873.06,1338.62 145.34,-21.12 c -56.42,344.27 -328.83,616.69 -673.1,673.11 l 21.12,-145.34 c 250.68,-58.31 448.33,-255.96 506.64,-506.65"
         style="fill:#314642;fill-opacity:1;fill-rule:nonzero;stroke:none"
         id="path38" />
      <path
         d="m 1212.82,1005.88 c -98.94,0 -179.14,80.21 -179.14,179.14 0,98.94 80.2,179.15 179.14,179.15 98.94,0 179.14,-80.21 179.14,-179.15 0,-98.93 -80.2,-179.14 -179.14,-179.14 z m 207.22,470.36 -102.87,-62.5 -104.35,718.07 -104.35,-718.07 -102.87,62.5 -214.034,130.04 130.032,-214.03 62.504,-102.88 -718.075,-104.35 718.075,-104.35 -62.5,-102.869 -130.036,-214.031 214.034,130.031 102.87,62.508 104.35,-718.079 104.35,718.079 102.87,-62.508 214.03,-130.031 -130.04,214.031 -62.49,102.869 718.07,104.35 -718.07,104.35 62.5,102.88 130.03,214.03 -214.03,-130.04"
         style="fill:#c17666;fill-opacity:1;fill-rule:nonzero;stroke:none"
         id="path40" />
      <path
         d="m 1212.82,1094.26 c -50.13,0 -90.76,40.63 -90.76,90.76 0,50.13 40.63,90.77 90.76,90.77 50.12,0 90.76,-40.64 90.76,-90.77 0,-50.13 -40.64,-90.76 -90.76,-90.76 z m 0,269.91 c -98.94,0 -179.14,-80.21 -179.14,-179.15 0,-98.93 80.2,-179.14 179.14,-179.14 98.94,0 179.14,80.21 179.14,179.14 0,98.94 -80.2,179.15 -179.14,179.15"
         style="fill:#ffffff;fill-opacity:1;fill-rule:nonzero;stroke:none"
         id="path42" />
      <path
         d="m 1212.82,1275.79 c -50.13,0 -90.76,-40.64 -90.76,-90.77 0,-50.13 40.63,-90.76 90.76,-90.76 50.12,0 90.76,40.63 90.76,90.76 0,50.13 -40.64,90.77 -90.76,90.77"
         style="fill:#314642;fill-opacity:1;fill-rule:nonzero;stroke:none"
         id="path44" />
      <path
         d="m 2510.26,534.93 c 9.85,1.422 19.73,4.25 28.03,8.968 4.16,2.84 7.79,5.672 11.43,9.442 3.63,3.781 7.27,8.5 9.35,13.219 3.11,5.66 5.19,11.8 6.76,17.941 1.56,7.551 2.06,16.051 2.06,24.07 -2.58,75.059 -66.48,80.25 -77.89,80.25 h -41.04 V 533.512 H 2490 c 6.75,0 13.49,0.476 20.26,1.418 z m -18.7,-19.352 c -15.59,-0.469 -30.13,-0.469 -42.6,-0.469 V 359.801 h -57.13 V 705.34 h 57.13 c 59.72,0 180.75,1.422 180.75,-96.77 0,-55.23 -36.88,-78.832 -79.47,-88.75 l 126.73,-160.019 h -63.88 l -121.53,155.777"
         style="fill:#c17666;fill-opacity:1;fill-rule:nonzero;stroke:none"
         id="path46" />
      <path
         d="M 2989.17,377.738 V 359.801 H 2749.74 V 705.34 h 239.43 v -17.942 h -182.3 V 550.512 h 152.17 V 529.27 H 2806.87 V 377.738 h 182.3"
         style="fill:#c17666;fill-opacity:1;fill-rule:nonzero;stroke:none"
         id="path48" />
      <path
         d="m 3400.06,423.059 c -4.68,-8.5 -46.75,-71.758 -154.79,-71.758 -115.82,0 -183.33,80.25 -183.33,179.847 0,99.141 67.51,179.864 183.33,179.864 109.6,0 151.16,-65.621 155.3,-72.223 l -12.46,-11.809 c -118.93,129.821 -260.74,43.899 -260.74,-95.832 0,-128.386 141.29,-226.109 259.71,-96.757 l 12.98,-11.332"
         style="fill:#c17666;fill-opacity:1;fill-rule:nonzero;stroke:none"
         id="path50" />
      <path
         d="m 3777.72,533.512 c 0,110.937 -54.02,163.808 -121.03,163.808 -66.48,0 -121.01,-53.82 -121.01,-163.808 0,-114.231 54.53,-163.793 121.01,-163.793 67.01,0 121.03,49.562 121.03,163.793 z m 62.32,0 c 0,-125.082 -82.06,-179.852 -183.35,-179.852 -101.28,0 -183.33,54.77 -183.33,179.852 0,120.847 82.05,179.386 183.33,179.386 101.29,0 183.35,-57.589 183.35,-179.386"
         style="fill:#c17666;fill-opacity:1;fill-rule:nonzero;stroke:none"
         id="path52" />
      <path
         d="M 4209.42,705.34 4039.06,352.719 4026.6,379.16 3871.3,705.34 h 56.61 l 127.24,-267.18 128.3,267.18 h 25.97"
         style="fill:#c17666;fill-opacity:1;fill-rule:nonzero;stroke:none"
         id="path54" />
      <path
         d="M 4521.62,377.738 V 359.801 H 4282.19 V 705.34 h 239.43 v -17.942 h -182.3 V 550.512 h 152.17 V 529.27 H 4339.32 V 377.738 h 182.3"
         style="fill:#c17666;fill-opacity:1;fill-rule:nonzero;stroke:none"
         id="path56" />
      <path
         d="m 4718.01,534.93 c 9.85,1.422 19.73,4.25 28.03,8.968 4.16,2.84 7.8,5.672 11.43,9.442 3.64,3.781 7.27,8.5 9.35,13.219 3.11,5.66 5.19,11.8 6.76,17.941 1.56,7.551 2.07,16.051 2.07,24.07 -2.59,75.059 -66.49,80.25 -77.9,80.25 h -41.03 V 533.512 h 41.03 c 6.75,0 13.49,0.476 20.26,1.418 z m -18.7,-19.352 c -15.59,-0.469 -30.13,-0.469 -42.59,-0.469 V 359.801 h -57.14 V 705.34 h 57.14 c 59.72,0 180.74,1.422 180.74,-96.77 0,-55.23 -36.87,-78.832 -79.47,-88.75 l 126.73,-160.019 h -63.88 l -121.53,155.777"
         style="fill:#c17666;fill-opacity:1;fill-rule:nonzero;stroke:none"
         id="path58" />
      <path
         d="M 5238.99,705.34 5101.34,508.969 V 359.801 h -57.13 V 502.832 L 4895.15,705.34 h 69.07 l 126.22,-172.289 120.5,172.289 h 28.05"
         style="fill:#c17666;fill-opacity:1;fill-rule:nonzero;stroke:none"
         id="path60" />
      <path
         d="M 5778.2,705.34 V 359.801 h -57.14 v 166.16 H 5529.94 V 359.801 H 5472.8 V 705.34 h 57.14 V 543.898 h 191.12 V 705.34 h 57.14"
         style="fill:#c17666;fill-opacity:1;fill-rule:nonzero;stroke:none"
         id="path62" />
      <path
         d="M 6090.4,377.738 V 359.801 H 5850.96 V 705.34 H 6090.4 V 687.398 H 5908.1 V 550.512 h 152.17 V 529.27 H 5908.1 V 377.738 h 182.3"
         style="fill:#c17666;fill-opacity:1;fill-rule:nonzero;stroke:none"
         id="path64" />
      <path
         d="m 6219.27,442.879 h 173.47 l -87.78,173.723 z m -66.48,-83.078 170.36,345.539 174.51,-345.539 h -62.85 l -32.72,65.148 h -191.65 l -32.21,-65.148 h -25.44"
         style="fill:#c17666;fill-opacity:1;fill-rule:nonzero;stroke:none"
         id="path66" />
      <path
         d="M 6804.16,359.801 H 6560.04 V 705.34 h 51.94 V 381.051 h 192.18 v -21.25"
         style="fill:#c17666;fill-opacity:1;fill-rule:nonzero;stroke:none"
         id="path68" />
      <path
         d="m 6939.25,359.801 h -51.94 V 705.34 h 51.94 V 359.801"
         style="fill:#c17666;fill-opacity:1;fill-rule:nonzero;stroke:none"
         id="path70" />
      <path
         d="M 7322.57,359.801 7045.74,606.68 V 359.801 h -23.37 V 704.879 L 7299.2,458.461 v 246.418 h 23.37 V 359.801"
         style="fill:#c17666;fill-opacity:1;fill-rule:nonzero;stroke:none"
         id="path72" />
      <path
         d="m 7733.46,424.949 c -1.55,-3.308 -8.31,-13.687 -21.3,-25.5 -22.84,-20.769 -64.93,-46.258 -133.49,-46.258 -115.82,0 -183.33,80.25 -183.33,179.379 0,99.129 67.51,179.852 183.33,179.852 110.12,0 151.16,-65.613 155.3,-72.223 l -12.46,-11.801 c -118.93,130.293 -260.74,42.481 -260.74,-95.828 0,-115.648 116.35,-206.761 225.94,-126.98 v 119.43 h 46.75 V 424.949"
         style="fill:#c17666;fill-opacity:1;fill-rule:nonzero;stroke:none"
         id="path74" />
    </g>
  </g>
</svg>
