<?xml version="1.0" encoding="UTF-8" standalone="no"?>
    <svg 
    version="1.1"
    id="svg3"
    width="316.01334"
    height="316.01334"
    viewBox="0 0 316.01334 316.01334"
    sodipodi:docname="FF-01.eps"
    xmlns:inkscape="http://www.inkscape.org/namespaces/inkscape"
    xmlns:sodipodi="http://sodipodi.sourceforge.net/DTD/sodipodi-0.dtd"
    xmlns="http://www.w3.org/2000/svg"
    xmlns:svg="http://www.w3.org/2000/svg">
    <defs
      id="defs6" />
    <sodipodi:namedview
      id="namedview4"
      pagecolor="#ffffff"
      bordercolor="#000000"
      borderopacity="0.25"
      inkscape:showpageshadow="2"
      inkscape:pageopacity="0.0"
      inkscape:pagecheckerboard="0"
      inkscape:deskcolor="#d1d1d1" />
    <g
      id="g8"
      inkscape:groupmode="layer"
      inkscape:label="ink_ext_XXXXXX"
      transform="matrix(1.3333333,0,0,-1.3333333,0,316.01333)">
    <g
        id="g10"
        transform="scale(0.1)">
      <path
          d="M 1366.42,524.781 1345.3,379.43 c 344.27,56.429 616.68,328.84 673.1,673.12 l -145.34,-21.12 C 1814.75,780.738 1617.1,583.09 1366.42,524.781"
          style="fill:#314642;fill-opacity:1;fill-rule:nonzero;stroke:none"
          id="path32" />
      <path
          d="m 1059.22,1845.27 21.12,145.34 C 736.07,1934.19 463.664,1661.77 407.238,1317.5 l 145.34,21.12 c 58.313,250.69 255.961,448.34 506.642,506.65"
          style="fill:#314642;fill-opacity:1;fill-rule:nonzero;stroke:none"
          id="path34" />
      <path
          d="m 552.578,1031.43 -145.34,21.12 C 463.664,708.27 736.07,435.859 1080.34,379.43 l -21.12,145.351 C 808.539,583.09 610.891,780.738 552.578,1031.43"
          style="fill:#314642;fill-opacity:1;fill-rule:nonzero;stroke:none"
          id="path36" />
      <path
          d="m 1873.06,1338.62 145.34,-21.12 c -56.42,344.27 -328.83,616.69 -673.1,673.11 l 21.12,-145.34 c 250.68,-58.31 448.33,-255.96 506.64,-506.65"
          style="fill:#314642;fill-opacity:1;fill-rule:nonzero;stroke:none"
          id="path38" />
      <path
          d="m 1212.82,1005.88 c -98.94,0 -179.14,80.21 -179.14,179.14 0,98.94 80.2,179.15 179.14,179.15 98.94,0 179.14,-80.21 179.14,-179.15 0,-98.93 -80.2,-179.14 -179.14,-179.14 z m 207.22,470.36 -102.87,-62.5 -104.35,718.07 -104.35,-718.07 -102.87,62.5 -214.034,130.04 130.032,-214.03 62.504,-102.88 -718.075,-104.35 718.075,-104.35 -62.5,-102.869 -130.036,-214.031 214.034,130.031 102.87,62.508 104.35,-718.079 104.35,718.079 102.87,-62.508 214.03,-130.031 -130.04,214.031 -62.49,102.869 718.07,104.35 -718.07,104.35 62.5,102.88 130.03,214.03 -214.03,-130.04"
          style="fill:#c17666;fill-opacity:1;fill-rule:nonzero;stroke:none"
          id="path40" />
      <path
          d="m 1212.82,1094.26 c -50.13,0 -90.76,40.63 -90.76,90.76 0,50.13 40.63,90.77 90.76,90.77 50.12,0 90.76,-40.64 90.76,-90.77 0,-50.13 -40.64,-90.76 -90.76,-90.76 z m 0,269.91 c -98.94,0 -179.14,-80.21 -179.14,-179.15 0,-98.93 80.2,-179.14 179.14,-179.14 98.94,0 179.14,80.21 179.14,179.14 0,98.94 -80.2,179.15 -179.14,179.15"
          style="fill:#ffffff;fill-opacity:1;fill-rule:nonzero;stroke:none"
          id="path42" />
      <path
          d="m 1212.82,1275.79 c -50.13,0 -90.76,-40.64 -90.76,-90.77 0,-50.13 40.63,-90.76 90.76,-90.76 50.12,0 90.76,40.63 90.76,90.76 0,50.13 -40.64,90.77 -90.76,90.77"
          style="fill:#314642;fill-opacity:1;fill-rule:nonzero;stroke:none"
          id="path44" />
    </g>
    </g>
    </svg>